<?xml version="1.0" standalone="no"?>
<!DOCTYPE svg PUBLIC "-//W3C//DTD SVG 20010904//EN"
 "http://www.w3.org/TR/2001/REC-SVG-20010904/DTD/svg10.dtd">
<svg version="1.0" xmlns="http://www.w3.org/2000/svg"
 width="512.000000pt" height="512.000000pt" viewBox="0 0 512.000000 512.000000"
 preserveAspectRatio="xMidYMid meet">

<g transform="translate(0.000000,512.000000) scale(0.100000,-0.100000)"
fill="#000000" stroke="none">
<path d="M2305 5081 c-74 -19 -142 -77 -171 -146 -9 -22 -19 -79 -22 -127 l-5
-88 -227 0 c-270 0 -297 -6 -376 -84 -82 -82 -84 -95 -84 -472 l0 -323 26 -20
c33 -26 65 -27 95 -2 21 17 24 29 28 105 l3 86 46 -32 c68 -47 137 -70 230
-76 l82 -5 0 -58 c0 -50 3 -60 26 -78 30 -24 43 -26 77 -10 32 14 47 49 47
104 l0 45 480 0 480 0 0 -45 c0 -55 15 -90 47 -104 34 -16 47 -14 77 10 23 18
26 28 26 78 l0 58 83 5 c92 6 161 29 230 77 l47 32 0 -312 c0 -344 -2 -358
-63 -394 -31 -19 -56 -20 -927 -20 -856 0 -896 1 -926 19 -48 29 -57 53 -64
160 -5 87 -9 101 -29 117 -30 25 -62 24 -95 -2 -25 -20 -26 -24 -26 -123 0
-95 2 -108 31 -164 33 -68 71 -105 139 -136 45 -21 52 -21 970 -21 857 0 928
1 963 17 67 30 114 76 146 140 l31 61 0 567 c0 651 3 629 -84 716 -79 78 -106
84 -376 84 l-227 0 -6 89 c-3 48 -13 106 -22 127 -20 49 -68 99 -120 127 -38
21 -55 22 -285 24 -135 1 -258 -2 -275 -6z m495 -154 c38 -19 60 -72 60 -144
l0 -63 -300 0 -300 0 0 63 c0 72 22 125 60 144 18 9 88 13 240 13 152 0 222
-4 240 -13z m687 -377 c54 -32 66 -69 61 -184 -3 -84 -8 -109 -30 -152 -51
-97 -141 -154 -255 -162 l-73 -5 0 56 c0 62 -18 92 -62 103 -22 5 -33 0 -58
-24 -25 -26 -30 -38 -30 -81 l0 -51 -480 0 -480 0 0 51 c0 43 -5 55 -30 81
-25 24 -36 29 -58 24 -44 -11 -62 -41 -62 -103 l0 -56 -72 5 c-115 8 -205 65
-256 162 -22 43 -27 68 -30 152 -5 115 7 152 61 184 31 19 57 20 927 20 870 0
896 -1 927 -20z"/>
<path d="M92 3393 c-18 -9 -45 -32 -60 -51 l-27 -35 0 -816 0 -816 28 -57 c15
-31 42 -70 60 -85 36 -32 604 -374 671 -404 79 -36 186 -16 246 46 30 31 60
45 60 29 0 -4 -21 -35 -46 -71 -59 -83 -78 -139 -71 -212 12 -134 108 -228
243 -239 61 -4 62 -5 72 -41 30 -99 142 -181 249 -181 44 0 53 -3 53 -17 1
-34 55 -117 98 -150 24 -18 62 -38 85 -44 40 -11 135 -8 168 5 10 5 19 -1 26
-17 21 -45 78 -100 128 -123 88 -42 190 -29 270 31 25 19 47 35 50 35 3 0 54
-29 114 -65 61 -36 133 -70 160 -77 128 -29 269 58 304 190 9 32 15 41 27 36
98 -42 165 -42 248 0 65 33 109 87 129 159 l17 59 33 -7 c116 -22 253 70 285
191 l12 42 78 -5 c94 -7 146 9 202 64 61 59 81 106 81 193 0 64 -4 82 -27 124
-16 27 -28 50 -28 51 0 2 16 13 36 24 l37 22 21 -20 c29 -28 99 -51 152 -51
43 0 131 39 232 103 68 44 77 96 24 137 -34 27 -55 22 -158 -41 -87 -52 -120
-59 -152 -31 -11 9 -162 256 -336 548 -227 381 -316 539 -316 560 0 19 9 39
23 51 20 20 1360 823 1372 823 3 0 5 -348 5 -773 0 -731 -1 -774 -18 -807 -14
-25 -45 -51 -113 -93 -52 -31 -100 -65 -106 -74 -31 -41 5 -113 57 -113 32 0
179 82 235 131 19 17 47 56 62 87 l28 57 0 816 0 816 -27 35 c-33 43 -103 73
-151 65 -29 -4 -1357 -786 -1434 -845 -18 -13 -44 -48 -59 -78 -23 -48 -26
-63 -21 -120 5 -62 4 -66 -20 -75 -53 -20 -112 -10 -246 42 -182 71 -207 72
-426 17 l-174 -44 -66 32 c-146 72 -232 72 -421 -2 -108 -42 -135 -49 -195
-49 -58 0 -79 5 -122 29 -52 29 -53 30 -53 76 0 58 -39 139 -83 173 -36 27
-1319 793 -1384 826 -50 25 -96 27 -141 4z m748 -538 c366 -218 675 -406 688
-417 13 -13 22 -33 22 -52 0 -21 -89 -180 -316 -563 -174 -293 -326 -540 -337
-548 -12 -8 -33 -15 -47 -15 -14 1 -160 82 -344 193 -269 161 -323 198 -338
227 -17 33 -18 81 -18 808 0 615 3 773 13 769 6 -3 311 -183 677 -402z m1535
-629 l34 -15 -34 -56 c-18 -31 -38 -79 -44 -106 -14 -66 -14 -459 0 -496 37
-98 153 -131 285 -82 70 26 164 114 185 172 7 20 17 37 22 37 5 0 250 -143
544 -317 403 -238 540 -324 555 -347 45 -72 -8 -166 -95 -166 -37 0 -88 27
-412 220 -230 137 -380 220 -396 220 -67 0 -97 -78 -48 -124 13 -13 145 -94
292 -181 147 -87 276 -169 287 -183 27 -33 27 -101 0 -135 -27 -34 -82 -52
-119 -39 -16 6 -150 82 -298 170 -147 88 -278 162 -289 166 -31 10 -71 -12
-85 -47 -22 -52 -1 -71 231 -208 221 -132 250 -156 250 -212 0 -64 -70 -125
-130 -113 -16 3 -117 58 -226 122 -134 80 -207 117 -227 117 -49 0 -81 -55
-61 -107 4 -9 49 -42 101 -73 112 -67 133 -90 133 -148 0 -76 -72 -130 -141
-106 -22 8 -172 92 -207 116 -1 1 7 22 18 46 28 62 27 150 -4 214 -34 74 -90
120 -179 149 -13 4 -17 12 -12 27 4 12 7 47 7 79 0 139 -103 246 -249 258 -45
3 -63 9 -63 19 0 7 -11 36 -25 62 -72 143 -261 185 -391 86 l-31 -24 -33 41
c-64 79 -200 113 -294 74 -46 -19 -56 -19 -80 -1 -18 13 -5 37 234 440 139
234 257 425 262 425 6 0 25 -9 42 -19 48 -29 133 -51 200 -51 59 0 105 14 306
89 65 24 137 27 185 7z m653 -7 c248 -92 243 -90 327 -86 44 3 96 11 116 20
l36 15 244 -412 c133 -226 249 -420 256 -431 12 -19 8 -24 -53 -59 l-65 -37
-550 325 c-390 231 -558 326 -579 326 -43 0 -66 -28 -74 -90 -15 -114 -87
-190 -181 -190 l-35 0 0 203 c0 196 1 205 25 253 38 76 69 93 250 141 88 23
175 42 193 42 18 1 58 -9 90 -20z m-1650 -1032 c30 -15 52 -57 52 -100 0 -26
-16 -57 -67 -130 -37 -52 -79 -102 -94 -111 -83 -49 -189 32 -166 125 4 13 37
67 75 119 85 118 122 136 200 97z m421 -52 c37 -18 65 -77 57 -118 -7 -34
-235 -357 -274 -387 -15 -12 -40 -20 -64 -20 -32 0 -47 7 -74 34 -28 28 -34
41 -34 78 0 40 11 58 125 218 69 96 138 183 153 192 33 22 74 23 111 3z m327
-236 c30 -28 43 -74 33 -112 -8 -28 -236 -354 -264 -377 -24 -20 -89 -24 -122
-7 -39 20 -67 77 -58 118 9 40 250 376 284 394 35 20 97 12 127 -16z m184
-344 c78 -40 80 -103 8 -210 -59 -87 -92 -110 -150 -102 -45 6 -71 26 -88 68
-19 44 -5 88 52 164 72 94 114 113 178 80z"/>
</g>
</svg>
