<?xml version="1.0" standalone="no"?>
<!DOCTYPE svg PUBLIC "-//W3C//DTD SVG 20010904//EN"
 "http://www.w3.org/TR/2001/REC-SVG-20010904/DTD/svg10.dtd">
<svg version="1.0" xmlns="http://www.w3.org/2000/svg"
 width="512.000000pt" height="512.000000pt" viewBox="0 0 512.000000 512.000000"
 preserveAspectRatio="xMidYMid meet">

<g transform="translate(0.000000,512.000000) scale(0.100000,-0.100000)"
fill="#000000" stroke="none">
<path d="M2285 5101 c-51 -23 -101 -79 -114 -128 -6 -21 -11 -92 -11 -159 l0
-121 -41 -18 c-22 -11 -69 -38 -104 -60 l-63 -42 -99 57 c-151 86 -200 97
-278 61 -51 -23 -82 -58 -134 -148 l-41 -72 -243 -3 -244 -3 -49 -30 c-30 -19
-60 -49 -79 -79 -30 -49 -30 -51 -33 -213 -4 -161 -4 -163 -26 -163 -13 0 -58
-9 -102 -20 -429 -110 -695 -533 -605 -965 34 -164 82 -239 141 -220 13 4 25
-4 41 -27 13 -18 40 -54 61 -79 32 -38 37 -50 30 -70 -16 -43 5 -75 80 -125
125 -83 286 -133 428 -134 l75 0 13 -53 c55 -233 259 -379 448 -319 l60 19 24
-76 c70 -225 228 -446 423 -592 73 -55 263 -158 315 -171 20 -6 22 -12 22 -75
l0 -70 -52 -24 c-319 -148 -547 -483 -565 -830 l-6 -105 28 -22 28 -22 947 0
947 0 28 22 28 22 -6 105 c-18 340 -224 655 -531 812 l-86 44 0 68 c0 62 2 69
21 74 12 4 61 25 109 49 118 57 142 93 99 148 -28 35 -60 34 -150 -8 -41 -19
-99 -42 -129 -51 -30 -10 -65 -28 -77 -42 -21 -22 -23 -34 -23 -135 0 -131
-11 -174 -59 -229 -45 -53 -101 -79 -171 -79 -70 0 -126 26 -171 79 -48 55
-59 98 -59 229 0 136 -7 147 -125 187 -345 117 -612 433 -676 801 -20 114 -74
136 -156 64 -57 -50 -112 -66 -166 -50 -78 23 -165 134 -170 217 -2 35 -2 36
63 58 36 12 80 30 97 39 l32 16 17 -55 c17 -61 46 -95 80 -95 36 0 54 11 70
42 14 26 13 35 -1 86 -10 31 -23 68 -30 83 -13 25 -11 28 46 85 33 32 69 73
79 90 13 21 33 35 62 43 166 50 351 208 470 401 31 50 59 97 61 103 2 7 25 -5
54 -29 168 -142 384 -233 638 -269 176 -26 522 -15 696 21 24 5 28 1 44 -48
37 -114 110 -231 199 -317 53 -52 54 -55 41 -80 -7 -15 -20 -52 -30 -83 -14
-51 -15 -60 -1 -86 8 -16 23 -32 31 -36 54 -20 93 8 119 90 l17 51 81 -33 c44
-18 89 -35 99 -37 12 -3 19 -14 19 -29 0 -40 -55 -141 -98 -180 -80 -73 -161
-72 -245 2 -82 72 -136 50 -156 -64 -32 -182 -108 -344 -238 -504 -25 -31 -43
-63 -43 -78 0 -33 42 -74 76 -74 73 0 251 269 315 473 l23 74 60 -19 c189 -60
393 86 448 318 l12 51 106 5 c189 10 364 85 508 222 253 240 330 600 195 920
-98 233 -308 412 -557 476 -44 11 -89 20 -102 20 -22 0 -22 2 -26 163 -3 162
-3 164 -33 213 -19 30 -49 60 -79 79 l-49 30 -244 3 -243 3 -41 72 c-52 90
-83 125 -134 148 -78 36 -127 25 -278 -61 l-99 -57 -63 42 c-35 22 -82 49
-104 60 l-41 18 0 121 c0 142 -10 183 -53 233 -60 68 -82 73 -347 73 -206 0
-240 -3 -275 -19z m-1000 -833 c-30 -64 -32 -127 -6 -183 24 -53 47 -72 166
-142 l100 -59 3 -107 3 -107 -40 0 c-34 0 -44 5 -67 35 -43 57 -167 151 -256
195 -80 39 -216 80 -265 80 -23 0 -23 0 -23 136 0 136 6 166 39 191 11 9 70
12 193 13 l177 0 -24 -52z m2896 39 c33 -25 39 -55 39 -191 0 -136 0 -136 -23
-136 -49 0 -185 -41 -265 -80 -89 -44 -213 -138 -256 -195 -23 -30 -33 -35
-67 -35 l-40 0 3 107 3 107 100 59 c119 70 142 89 166 142 26 56 24 119 -6
183 l-24 52 177 0 c123 -1 182 -4 193 -13z m-1550 -77 c30 -5 84 -22 121 -36
l67 -27 34 20 33 20 36 -28 c20 -16 48 -45 63 -65 l27 -36 -18 -34 c-18 -34
-18 -35 4 -97 30 -83 43 -171 36 -229 l-7 -48 -468 0 -468 0 -6 53 c-4 32 -1
79 8 123 41 195 181 338 371 379 76 17 100 17 167 5z m1827 -416 c106 -23 205
-79 296 -165 93 -88 145 -168 183 -284 23 -69 27 -96 27 -205 0 -114 -3 -133
-30 -211 -60 -170 -184 -312 -337 -388 -117 -58 -197 -74 -332 -68 -185 8
-311 64 -446 197 -178 177 -242 442 -163 678 38 113 78 177 168 268 67 68 97
89 176 127 154 74 287 89 458 51z m-3418 -21 c101 -33 182 -84 260 -164 124
-126 181 -257 188 -432 5 -119 -8 -203 -41 -282 -91 -217 -293 -379 -516 -414
-48 -8 -56 -6 -105 24 -77 46 -140 101 -191 166 l-44 56 9 56 c11 71 29 105
79 150 84 76 208 76 292 0 50 -45 68 -79 79 -151 12 -71 46 -107 94 -98 52 10
69 41 64 116 -10 130 -90 245 -211 305 -159 78 -324 50 -449 -77 -35 -35 -60
-53 -64 -47 -4 7 -9 62 -12 124 -12 279 116 524 353 674 58 37 88 37 215 -6z
m2484 -340 c-33 -88 -54 -197 -54 -283 0 -67 -1 -69 -27 -74 -160 -33 -443
-45 -602 -27 -191 23 -359 76 -495 158 -34 20 -105 81 -158 135 -133 134 -157
132 -221 -19 -68 -158 -216 -349 -317 -407 l-33 -19 7 34 c41 194 33 342 -28
502 l-25 67 989 0 989 0 -25 -67z m-436 -2710 c162 -124 282 -332 317 -550 l7
-43 -852 0 -851 0 6 38 c29 171 86 300 190 433 50 64 175 165 251 203 l58 29
25 -34 c46 -62 104 -112 160 -137 73 -33 193 -41 272 -18 73 21 160 85 200
146 l32 50 56 -31 c31 -17 89 -56 129 -86z"/>
<path d="M4052 3510 c-28 -26 -35 -71 -30 -187 4 -90 6 -97 32 -119 34 -30 58
-30 93 0 27 23 28 29 31 121 5 115 -2 159 -29 186 -25 25 -69 24 -97 -1z"/>
<path d="M4442 3510 c-28 -26 -35 -71 -30 -187 4 -90 6 -97 32 -119 34 -30 58
-30 93 0 27 23 28 29 31 121 5 115 -2 159 -29 186 -25 25 -69 24 -97 -1z"/>
<path d="M3813 3230 c-43 -18 -54 -77 -32 -182 36 -174 184 -334 358 -389 90
-28 222 -28 312 0 174 55 322 215 358 389 14 67 14 128 0 153 -15 29 -57 42
-90 29 -32 -14 -45 -44 -53 -118 -12 -117 -92 -229 -204 -284 -62 -31 -74 -33
-167 -33 -93 0 -105 2 -167 33 -112 55 -190 164 -203 284 -10 87 -14 97 -45
113 -33 17 -36 17 -67 5z"/>
<path d="M571 3504 c-19 -24 -21 -40 -21 -151 0 -118 1 -125 25 -148 15 -16
36 -25 55 -25 19 0 40 9 55 25 24 23 25 30 25 148 0 111 -2 127 -21 151 -16
20 -29 26 -59 26 -30 0 -43 -6 -59 -26z"/>
<path d="M961 3504 c-19 -24 -21 -40 -21 -151 0 -118 1 -125 25 -148 15 -16
36 -25 55 -25 19 0 40 9 55 25 24 23 25 30 25 148 0 111 -2 127 -21 151 -16
20 -29 26 -59 26 -30 0 -43 -6 -59 -26z"/>
<path d="M2235 2695 c-24 -23 -25 -30 -25 -139 0 -64 5 -126 11 -140 23 -51
103 -55 128 -7 6 11 11 75 11 144 0 116 -1 125 -23 145 -31 29 -72 28 -102 -3z"/>
<path d="M2782 2697 c-20 -21 -22 -34 -22 -146 0 -67 5 -131 11 -142 25 -48
105 -44 128 7 6 14 11 76 11 140 0 109 -1 116 -25 139 -31 32 -74 33 -103 2z"/>
<path d="M2350 1980 c-30 -30 -27 -83 6 -109 25 -19 40 -21 204 -21 164 0 179
2 204 21 33 26 36 79 6 109 -19 19 -33 20 -210 20 -177 0 -191 -1 -210 -20z"/>
</g>
</svg>
